# xmcd CD database file
#
# Track frame offsets:
#	150
#	21525
#	52940
#	71770
#	98235
#	150242
#	232390
#	261462
#	286670
#	312872
#
# Disc length: 4381 seconds
#
# Revision: 0
# Processed by: cddbd v1.4PL0 Copyright (c) Steve Scherf et al.
# Submitted via: CDex 1.50Beta7
#
DISCID=8a111b0a
DTITLE=John Coltrane  - The Best Of John Coltrane
DYEAR=1900
DGENRE=Jazz
TTITLE0=Giant Steps
TTITLE1=Mr. P.C.
TTITLE2=Harmonique
TTITLE3=Like Sonny
TTITLE4=Summertime
TTITLE5=Ole
TTITLE6=Blues To You
TTITLE7=Body And Soul
TTITLE8=Stellite
TTITLE9=Stairway To The Stars
EXTD=
EXTT0=
EXTT1=
EXTT2=
EXTT3=
EXTT4=
EXTT5=
EXTT6=
EXTT7=
EXTT8=
EXTT9=
PLAYORDER=
